<?xml version="1.0" encoding="utf-8"?>
<!-- Generator: Adobe Illustrator 23.0.5, SVG Export Plug-In . SVG Version: 6.00 Build 0)  -->
<svg version="1.1" id="Слой_1" xmlns="http://www.w3.org/2000/svg" xmlns:xlink="http://www.w3.org/1999/xlink" x="0px" y="0px"
	 viewBox="0 0 38 38" style="enable-background:new 0 0 38 38;" xml:space="preserve">
<g>
	<path d="M37.5,17.7L24.6,5c-0.8-0.7-2-0.7-2.7,0c-0.8,0.8-0.8,2.2,0,2.9l9.3,9H14.9c-1.1,0-1.9,0.9-1.9,2s0.8,2,1.9,2h16.2
		l-9.3,9.2c-0.7,0.8-0.7,2,0,2.7c0.8,0.8,2,0.8,2.7,0l9.3-9.2l3.5-3.5C38.2,19.6,38.2,18.4,37.5,17.7z"/>
</g>
<path d="M10.1,21H1.9C0.9,21,0,20.1,0,19.1v-0.1C0,17.9,0.9,17,1.9,17h8.1c1.1,0,1.9,0.9,1.9,1.9v0.1C12,20.1,11.1,21,10.1,21z"/>
</svg>
