<svg xmlns="http://www.w3.org/2000/svg" viewBox="0 0 207.62 207.24"><title>Ресурс 4</title><g id="Слой_2" data-name="Слой 2"><g id="Слой_1-2" data-name="Слой 1"><path d="M170.77,0H78.08A37,37,0,0,0,41.23,36.85v4.53H36.85A37,37,0,0,0,0,78.23v92.16a37,37,0,0,0,36.85,36.85H129a37,37,0,0,0,36.4-31.11h5.37a37,37,0,0,0,36.85-36.85V36.85A37,37,0,0,0,170.77,0ZM144.94,172.15a14.22,14.22,0,0,1-14.18,14.17H35.09a14.21,14.21,0,0,1-14.17-14.17V76.47A14.21,14.21,0,0,1,35.09,62.3h95.67a14.22,14.22,0,0,1,14.18,14.17Zm42-30.94a14.22,14.22,0,0,1-14.18,14.18h-6.92V78.23A37,37,0,0,0,129,41.38H61.91V34.76A14.22,14.22,0,0,1,76.08,20.58h96.69A14.22,14.22,0,0,1,187,34.76Z"/></g></g></svg>