<svg xmlns="http://www.w3.org/2000/svg" viewBox="0 0 191.48 191.19"><title>Ресурс 1</title><g id="Слой_2" data-name="Слой 2"><g id="Слой_1-2" data-name="Слой 1"><path d="M186.28,5.21a17.76,17.76,0,0,0-25.14,0L72.84,93.8a5.18,5.18,0,0,0-1.36,2.53l-5.13,24.33A3.88,3.88,0,0,0,71,125.25l24-5.37a5.23,5.23,0,0,0,2.41-1.28l88.91-88.25A17.78,17.78,0,0,0,186.28,5.21Z"/><path d="M166.21,83.49a10.91,10.91,0,0,0-10.9,10.89v69.16a6.34,6.34,0,0,1-6.33,6.33H28.08a6.34,6.34,0,0,1-6.33-6.33V42.65a6.34,6.34,0,0,1,6.33-6.34h69a10.92,10.92,0,1,0,0-21.83H27.68A27.71,27.71,0,0,0,0,42.16V163.51a27.71,27.71,0,0,0,27.68,27.68H149.44a27.71,27.71,0,0,0,27.68-27.68V94.38A10.91,10.91,0,0,0,166.21,83.49Z"/></g></g></svg>