<svg xmlns="http://www.w3.org/2000/svg" viewBox="0 0 195.93 195.93"><title>Ресурс 2</title><g id="Слой_2" data-name="Слой 2"><g id="Слой_1-2" data-name="Слой 1"><path d="M138.47,117.18,109.78,99.83a2.81,2.81,0,0,1-1.36-2.42V49.12A10.44,10.44,0,0,0,98,38.69h0A10.43,10.43,0,0,0,87.54,49.12v56.06a9.93,9.93,0,0,0,4.79,8.49L127.67,135A10.43,10.43,0,0,0,142,131.51h0A10.44,10.44,0,0,0,138.47,117.18Z"/><path d="M195.91,96.22C195,43.94,152.5,1.21,100.24,0a98.44,98.44,0,0,0-21.3,1.82,10.72,10.72,0,0,0-7.65,15h0a10.71,10.71,0,0,0,11.82,6A76.55,76.55,0,1,1,31.27,60.41l13,7.75a9.87,9.87,0,0,0,11.32-.74,9.84,9.84,0,0,0,3.93-10.83L51.79,25.83c-1.61-6.28-6.88-9.42-13.13-7.89L9,25.31C4,26.54.65,29.78.13,34.37-.42,39.26,1.73,42.85,6,45.28l6.91,4.13A97.52,97.52,0,0,0,0,100.55c1.32,51.05,42.27,92.91,93.28,95.27A98,98,0,0,0,195.91,96.22Z"/></g></g></svg>